<svg width="301" height="300" viewBox="0 0 301 300" fill="none" xmlns="http://www.w3.org/2000/svg">
    <path d="M158.512 0V11.379H157.83L150.081 1.49553V11.379H149.253V0H149.951L157.683 9.8835V0H158.512Z" fill="black"/>
    <path d="M254.43 48.0706V53.7601H254.089L250.215 48.8184V53.7601H249.801V48.0706H250.15L254.016 53.0124V48.0706H254.43Z" fill="black"/>
    <path d="M260.339 53.3862V53.7601H256.416V48.0706H260.217V48.4445H256.83V50.6878H259.86V51.0535H256.83V53.3862H260.339Z" fill="black"/>
    <path d="M50.829 48.0706V53.7601H50.4879L46.6135 48.8184V53.7601H46.1993V48.0706H46.5486L50.4148 53.0124V48.0706H50.829Z" fill="black"/>
    <path d="M60.3455 48.0706L58.4206 53.7601H57.982L56.2194 48.6558L54.4488 53.7601H54.0102L52.0771 48.0706H52.5157L54.2457 53.1912L56.0245 48.0706H56.4225L58.1931 53.1993L59.9394 48.0706H60.3455Z" fill="black"/>
    <path d="M252.128 250.031C251.711 250.031 251.313 249.961 250.934 249.82C250.56 249.673 250.268 249.486 250.057 249.259L250.243 248.95C250.444 249.161 250.712 249.335 251.048 249.47C251.389 249.6 251.746 249.665 252.12 249.665C252.661 249.665 253.07 249.562 253.346 249.356C253.622 249.15 253.76 248.882 253.76 248.552C253.76 248.297 253.687 248.094 253.541 247.942C253.395 247.79 253.214 247.674 252.997 247.593C252.78 247.511 252.488 247.427 252.12 247.341C251.703 247.238 251.367 247.137 251.113 247.04C250.863 246.942 250.65 246.793 250.471 246.593C250.298 246.387 250.211 246.113 250.211 245.772C250.211 245.496 250.284 245.244 250.43 245.016C250.577 244.783 250.799 244.599 251.096 244.463C251.4 244.328 251.776 244.26 252.225 244.26C252.539 244.26 252.848 244.306 253.151 244.398C253.454 244.49 253.717 244.615 253.939 244.772L253.785 245.105C253.557 244.948 253.306 244.829 253.029 244.748C252.759 244.667 252.491 244.626 252.225 244.626C251.7 244.626 251.302 244.732 251.031 244.943C250.761 245.154 250.625 245.428 250.625 245.764C250.625 246.019 250.698 246.222 250.845 246.373C250.991 246.525 251.172 246.642 251.389 246.723C251.605 246.804 251.9 246.891 252.274 246.983C252.691 247.086 253.024 247.186 253.273 247.284C253.522 247.381 253.733 247.53 253.907 247.731C254.085 247.926 254.175 248.191 254.175 248.527C254.175 248.804 254.099 249.056 253.947 249.283C253.801 249.511 253.574 249.692 253.265 249.828C252.956 249.963 252.577 250.031 252.128 250.031Z" fill="black"/>
    <path d="M259.506 249.616V249.99H255.583V244.301H259.384V244.675H255.997V246.918H259.027V247.284H255.997V249.616H259.506Z" fill="black"/>
    <path d="M48.491 250.031C48.074 250.031 47.676 249.961 47.297 249.82C46.9234 249.673 46.631 249.486 46.4198 249.259L46.6066 248.95C46.8069 249.161 47.075 249.335 47.4107 249.47C47.7518 249.6 48.1092 249.665 48.4828 249.665C49.0243 249.665 49.4331 249.562 49.7093 249.356C49.9855 249.15 50.1235 248.882 50.1235 248.552C50.1235 248.297 50.0504 248.094 49.9042 247.942C49.758 247.79 49.5766 247.674 49.36 247.593C49.1434 247.511 48.851 247.427 48.4828 247.341C48.0659 247.238 47.7302 247.137 47.4757 247.04C47.2266 246.942 47.0127 246.793 46.834 246.593C46.6607 246.387 46.5741 246.113 46.5741 245.772C46.5741 245.496 46.6472 245.244 46.7934 245.016C46.9396 244.783 47.1616 244.599 47.4594 244.463C47.7627 244.328 48.139 244.26 48.5884 244.26C48.9025 244.26 49.2111 244.306 49.5144 244.398C49.8176 244.49 50.0802 244.615 50.3022 244.772L50.1479 245.105C49.9205 244.948 49.6687 244.829 49.3925 244.748C49.1218 244.667 48.8538 244.626 48.5884 244.626C48.0632 244.626 47.6652 244.732 47.3945 244.943C47.1237 245.154 46.9883 245.428 46.9883 245.764C46.9883 246.019 47.0614 246.222 47.2076 246.373C47.3538 246.525 47.5352 246.642 47.7518 246.723C47.9684 246.804 48.2635 246.891 48.6372 246.983C49.0541 247.086 49.3871 247.186 49.6362 247.284C49.8853 247.381 50.0965 247.53 50.2697 247.731C50.4484 247.926 50.5378 248.191 50.5378 248.527C50.5378 248.804 50.462 249.056 50.3103 249.283C50.1641 249.511 49.9367 249.692 49.6281 249.828C49.3194 249.963 48.9404 250.031 48.491 250.031Z" fill="black"/>
    <path d="M59.5484 244.301L57.6234 249.99H57.1848L55.4223 244.886L53.6516 249.99H53.213L51.2799 244.301H51.7185L53.4486 249.421L55.2273 244.301H55.6253L57.396 249.43L59.1423 244.301H59.5484Z" fill="black"/>
    <path d="M301 152.869V153.617H293.154V142.238H300.756V142.986H293.982V147.472H300.042V148.204H293.982V152.869H301Z" fill="black"/>
    <path d="M16.5369 142.238L12.687 153.617H11.8097L8.28469 143.408L4.74339 153.617H3.86619L0 142.238H0.877203L4.33728 152.479L7.89482 142.238H8.69081L12.2321 152.495L15.7247 142.238H16.5369Z" fill="black"/>
    <path d="M153.907 300C153.073 300 152.277 299.859 151.519 299.577C150.772 299.285 150.187 298.911 149.765 298.456L150.139 297.838C150.539 298.261 151.075 298.607 151.747 298.878C152.429 299.138 153.144 299.268 153.891 299.268C154.974 299.268 155.792 299.063 156.344 298.651C156.896 298.239 157.172 297.703 157.172 297.041C157.172 296.532 157.026 296.126 156.734 295.822C156.441 295.519 156.079 295.286 155.645 295.123C155.212 294.961 154.627 294.793 153.891 294.619C153.057 294.413 152.386 294.213 151.877 294.018C151.379 293.823 150.951 293.525 150.593 293.124C150.247 292.712 150.074 292.165 150.074 291.482C150.074 290.929 150.22 290.425 150.512 289.97C150.805 289.504 151.249 289.136 151.844 288.865C152.451 288.594 153.203 288.458 154.102 288.458C154.73 288.458 155.348 288.551 155.954 288.735C156.561 288.919 157.086 289.168 157.53 289.483L157.221 290.149C156.766 289.835 156.263 289.596 155.71 289.434C155.169 289.271 154.633 289.19 154.102 289.19C153.052 289.19 152.256 289.401 151.714 289.824C151.173 290.247 150.902 290.794 150.902 291.466C150.902 291.975 151.048 292.381 151.341 292.685C151.633 292.988 151.996 293.221 152.429 293.384C152.862 293.546 153.452 293.72 154.2 293.904C155.034 294.11 155.7 294.31 156.198 294.506C156.696 294.701 157.118 294.999 157.465 295.4C157.822 295.79 158.001 296.321 158.001 296.993C158.001 297.545 157.849 298.049 157.546 298.504C157.254 298.96 156.799 299.323 156.181 299.594C155.564 299.865 154.806 300 153.907 300Z" fill="black"/>
</svg>
