<svg width="35" height="35" viewBox="0 0 35 35" fill="none" xmlns="http://www.w3.org/2000/svg">
<path d="M17.5 35C27.165 35 35 27.165 35 17.5C35 7.83502 27.165 0 17.5 0C7.83502 0 0 7.83502 0 17.5C0 27.165 7.83502 35 17.5 35Z" fill="white"/>
<path d="M17.5 6.5625C12.3654 6.5625 8.20312 10.6761 8.20312 15.75C8.20312 23.7891 17.5 29.5312 17.5 29.5312C17.5 29.5312 26.7969 23.9329 26.7969 15.75C26.7969 10.6761 22.6346 6.5625 17.5 6.5625ZM17.5 19.6875C15.0839 19.6875 13.125 17.7286 13.125 15.3125C13.125 12.8964 15.0839 10.9375 17.5 10.9375C19.9161 10.9375 21.875 12.8964 21.875 15.3125C21.875 17.7286 19.9161 19.6875 17.5 19.6875Z" fill="#2684FF"/>
</svg>
