<svg width="36" height="23" viewBox="0 0 36 23" fill="none" xmlns="http://www.w3.org/2000/svg">
<path d="M20.0137 19.3765C19.0437 18.129 18.2315 16.7538 17.5771 15.2508C16.9461 13.7477 16.3986 11.2266 16.0891 10.1243L19.4462 9.60373C19.6605 10.6754 19.9968 11.9887 20.4876 13.2212C20.9784 14.4537 21.5861 15.5358 22.3106 16.4677C23.117 17.5047 23.8299 18.1209 24.4494 18.3163C25.0805 18.4966 25.5948 18.3312 25.9922 17.82C26.2845 17.4442 26.4072 16.9858 26.3605 16.4446C26.3372 15.9035 26.2028 15.3248 25.9574 14.7086C25.7237 14.1074 25.3731 13.3258 24.9057 12.3639C24.1928 10.8759 23.6494 9.60581 23.2755 8.55367C22.9015 7.50154 22.7438 6.38174 22.8024 5.19427C22.8726 4.02183 23.3168 2.90947 24.135 1.85719C24.8481 0.940201 25.6838 0.361399 26.6422 0.120782C27.6123 -0.134867 28.6526 0.0153164 29.7629 0.571333C30.8849 1.14238 32.0068 2.14932 33.1288 3.59217C33.9118 4.59916 34.5837 5.70387 35.1447 6.90629C35.4522 7.56555 35.7071 8.2203 35.9092 8.87053C36.1891 9.77097 35.7945 10.7437 35.0998 11.1208L34.8966 11.2311C34.0337 11.6995 33.0583 11.0751 32.6736 9.97678C32.2032 8.63364 31.5893 7.47504 30.8319 6.50099C30.0372 5.47896 29.3184 4.88533 28.6756 4.72007C28.0444 4.56983 27.5185 4.7653 27.0977 5.30648C26.6769 5.84765 26.5775 6.53158 26.7995 7.35826C27.0449 8.18495 27.5181 9.3047 28.2193 10.7175C28.9322 12.2055 29.4756 13.4756 29.8495 14.5277C30.2234 15.5799 30.3811 16.6846 30.3226 17.8421C30.2758 19.0145 29.8432 20.1268 29.025 21.1791C28.3236 22.0811 27.4821 22.6524 26.5003 22.893C25.5418 23.1336 24.5016 22.9684 23.3796 22.3974C22.2576 21.8263 21.1357 20.8194 20.0137 19.3765Z" fill="#2684FF"/>
<path d="M3.34705 19.3765C2.37704 18.129 1.56483 16.7538 0.910422 15.2508C0.541936 14.3731 0.259133 13.539 0.0620128 12.7484C-0.170043 11.8177 0.273687 10.8802 0.984427 10.5341C1.95779 10.0601 3.0304 10.8694 3.42297 12.109C3.5395 12.477 3.67213 12.8477 3.82087 13.2212C4.31167 14.4537 4.91936 15.5359 5.64394 16.4677C6.45033 17.5047 7.16324 18.1209 7.78269 18.3163C8.41382 18.4966 8.9281 18.3312 9.32553 17.82C9.61776 17.4442 9.74052 16.9858 9.6938 16.4447C9.67047 15.9035 9.5361 15.3249 9.2907 14.7086C9.05699 14.1074 8.70641 13.3258 8.23896 12.3639C7.52611 10.8759 6.98272 9.60581 6.60878 8.55368C6.23485 7.50154 6.07714 6.38174 6.13567 5.19427C6.20589 4.02183 6.65011 2.90947 7.46834 1.85719C8.18137 0.940202 9.0171 0.3614 9.97553 0.120783C10.9456 -0.134866 11.9859 0.0153172 13.0962 0.571334C14.2182 1.14238 15.3401 2.14933 16.4621 3.59218C17.2451 4.59917 17.9171 5.70388 18.478 6.9063C19.0389 8.10873 19.4245 9.29614 19.6348 10.4685L16.6017 12.1148C16.111 9.83015 15.2988 7.95888 14.1652 6.50099C13.3705 5.47897 12.6517 4.88533 12.0089 4.72007C11.3777 4.56983 10.8518 4.7653 10.431 5.30648C10.0102 5.84765 9.91077 6.53158 10.1328 7.35826C10.3782 8.18495 10.8514 9.30471 11.5526 10.7176C12.2655 12.2056 12.8089 13.4756 13.1828 14.5278C13.5567 15.5799 13.7144 16.6847 13.6559 17.8421C13.6091 19.0145 13.1765 20.1269 12.3583 21.1791C11.657 22.0811 10.8154 22.6524 9.83358 22.893C8.87515 23.1336 7.83494 22.9684 6.71294 22.3974C5.59094 21.8263 4.46898 20.8194 3.34705 19.3765Z" fill="#2684FF"/>
</svg>
